<svg version="1" xmlns="http://www.w3.org/2000/svg" width="933.333" height="933.333" viewBox="0 0 700.000000 700.000000"><path d="M28.4 61c-5.7 2.3-8.1 10.1-4.7 15 1 1.4 16 20.4 33.5 42.2 17.5 21.9 31.8 40 31.8 40.3 0 .3-18.3.5-40.6.5-36.3 0-40.9.2-43.5 1.7-3.8 2.3-5.4 6.2-4.2 11 .8 3.6 5.8 7.4 119.1 89.8 65 47.3 118.7 86.5 119.3 87.1 1 1.1.3 8.5-1.7 18.7-.2 1-.8 5.1-1.3 9-.6 4-2.7 17.3-4.6 29.7-1.9 12.4-4 25.4-4.5 29-1.4 10-2.2 14.9-3.4 22.7-.3 1.6-1.4 9.1-2.6 16.8-2.3 15.2-2.8 18.7-3.5 22.5-.2 1.4-.7 4.3-1 6.5-.3 2.2-.7 5.1-1 6.5-.9 5.7-7.6 49.1-8 51.7-.6 5.1-6.7 44.2-9.1 59.1-1.4 8.7-1.4 9.5.3 13 1.3 2.8 2.8 4.1 5.9 5.1 3.8 1.3 4.4 1.3 7.5-.5 3.1-1.8 7.3-9.8 41.4-78.1l38-76.1 24.5-10.7c13.5-5.9 26.1-11.4 28-12.2 1.9-.9 5.3-2.4 7.5-3.4s23.4-10.2 47-20.4c23.7-10.3 44.4-19.3 46-20 3.2-1.5 59.1-25.7 76-33 17.1-7.4 21.9-9.7 23.5-11.4.9-.9 5.4-14 10.2-29.1 24.7-78.6 37.1-117.7 37.9-119.1.7-1.5 5.9-1.6 50.8-1.7 53.5-.1 52.4 0 55.5-5.3 3-5.1 1.5-10.4-4.3-14.3-16.9-11.4-88.3-54.9-90.8-55.3-3.6-.6-8.8 1.9-48.8 23.7-2.7 1.5-10.4 5.5-17 9s-30.9 16.4-54 28.8c-23.1 12.3-42.3 22.4-42.7 22.5-.6.2-18.6-21.4-38.8-46.3-1.9-2.4-8.1-10-13.8-16.9-5.7-6.9-10.9-13.3-11.5-14.1-2.5-3.2-14.2-17.5-14.7-18-.3-.3-3.9-4.6-7.9-9.5-4.1-5-8.3-9.6-9.4-10.4-1.7-1.2-9.6-3.2-18.2-4.6-2.2-.3-22.8-4-28.5-5-1.9-.4-4.4-.8-5.5-1-1.1-.1-8.3-1.4-16-2.8-7.7-1.4-15.6-2.9-17.5-3.2-1.9-.3-7.3-1.3-12-2.1-10.2-1.9-10.1-1.9-21.5-3.8-4.9-.9-10.1-1.8-11.5-2.1-1.4-.3-5.1-1-8.2-1.5-3.2-.6-8.4-1.4-11.5-2-3.2-.5-6.8-1.2-7.9-1.4-1.2-.2-3.7-.7-5.5-1-1.9-.3-10.8-1.9-19.9-3.5-9.1-1.7-18.1-3.3-20-3.6-1.9-.3-12.3-2.2-23-4.1-10.7-1.9-23.1-4.1-27.5-4.9-4.4-.8-17-3-28-5C38.4 61.2 31.7 60 31 60.1c-.3 0-1.5.4-2.6.9zM72 88c1.9.5 5.3 1.1 7.5 1.4 2.2.3 5.1.8 6.5 1.1 1.4.3 6.6 1.2 11.5 2.1 12.9 2.2 13.7 2.3 16.5 2.9 1.4.3 7.5 1.4 13.5 2.5 6.1 1 16.2 2.8 22.5 4 16.2 2.9 33.5 6 40 7.1 3 .5 6.6 1.1 8 1.4 1.4.3 6.6 1.2 11.5 2 5 .9 13.5 2.4 19 3.5 5.5 1 12 2.1 14.5 2.5 2.5.3 5.2.8 6 1 1.7.5 45 8.4 49.5 9 1.7.2 8.3 1.4 14.7 2.6 11.2 2 11.6 2.2 10.8 4.2-.5 1.2-17.3 43.4-37.5 93.7-20.2 50.3-37 92.3-37.4 93.4-.6 1.4-19.9-22.1-92.6-113C106 146.2 63.1 92.5 61.1 90.1l-3.5-4.3 5.4.7c3 .3 7.1 1 9 1.5zm280.6 70.2c5.4 6.8 10.1 12.5 10.4 12.8.5.5 13.3 16 15.5 18.8.5.7 1.5 1.8 2 2.5 1 1.2 8.7 10.6 11.6 14.2 12.8 15.6 21.6 26.2 22.4 27.1.5.6 2.4 2.8 4 5 1.7 2.1 5.5 6.8 8.5 10.5 3 3.6 10.1 12.2 15.6 19 21.6 26.3 42.9 52.5 43.9 53.7.5.7 1.5 1.8 2 2.5 2 2.4 10 12.2 11.6 14.2.9 1.1 4.2 5.1 7.4 8.8l5.7 6.9-9.3-.7c-17-1.2-19.3-1.4-26.9-2-13.5-1.1-17.4-1.3-27-2-5.2-.4-11.1-.8-13-1-1.9-.2-7.5-.6-12.5-1-4.9-.3-10.6-.7-12.5-1-1.9-.2-8-.7-13.5-1-5.5-.4-11.6-.8-13.5-1-1.9-.2-7.3-.6-12-1-4.7-.3-10.3-.7-12.5-1-2.2-.2-8-.6-13-1-4.9-.3-11.5-.8-14.5-1-3-.3-8.4-.7-12-1-3.6-.3-9.4-.7-13-1-6.5-.6-9.6-.8-28.4-2.1-12-.8-13.1-.9-12.9-2 .2-1.2 46-116.1 47.7-119.9.8-1.7 7.1-17.4 14.1-35 12.8-32.2 13.4-33.5 13.9-33.5.2 0 4.8 5.5 10.2 12.2zm291.7 38.5c4.8 3 8.7 5.6 8.7 5.7 0 .2-12.1.4-27 .4-14.8 0-27-.3-27-.7 0-.5 6.4-20.8 8.5-26.8.3-.8 5.4 1.8 14.2 7.3 7.6 4.8 17.7 11.1 22.6 14.1zm-537-15.7c2.1 2.2 85.2 106.3 86.1 107.8.5.8-4.5-2.5-11-7.3-6.6-4.7-40.6-29.4-75.6-54.8-35-25.4-63.7-46.4-63.8-46.7 0-.3 14.2-.6 31.5-.5 26.6 0 31.6.2 32.8 1.5zm476.7-.3c0 .4-2.4 8.3-5.4 17.7-10.8 33.8-41.9 132.3-44 139.5l-2.3 7.4-35.9-43.9c-38.5-47-42.8-52.4-42.2-52.8.1-.2 7.1-3.8 15.3-8.1 8.3-4.3 15.5-8.1 16-8.5.6-.4 6-3.3 12-6.5 18.4-9.7 40.8-21.6 45.7-24.3 1.8-1 8.9-4.8 15.8-8.5 6.9-3.6 15-8 18-9.6 5.6-3.1 7-3.6 7-2.4zM287 357.5c4.1.3 10 .7 13 1 3 .2 9.3.7 14 1 4.7.3 10.1.8 12 1 1.9.2 8.2.7 14 1.1 5.8.3 11.2.8 12 .9.8.2 6.7.6 13 1s12.2.8 13.1 1c.8.2 6.5.6 12.5 1 6 .3 12 .8 13.4 1 1.4.2 6.8.7 12 1 5.2.3 11.1.8 13 1 1.9.2 7.9.6 13.3 1 5.4.3 10.6.8 11.5 1 .9.1 6.9.6 13.2 1 6.3.4 12.9.9 14.5 1 1.7.2 4.8.4 7 .4 3.3.1 3.7.3 2.5 1.4-.8.8-9.1 4.6-18.5 8.7-15.7 6.7-43.5 18.8-53 23-2.2 1-12.1 5.2-22 9.5s-19.8 8.5-22 9.5c-2.3 1-12.6 5.5-23 10-10.5 4.5-20.8 9-23 10-2.2 1-11.7 5.2-21.1 9.2l-17.1 7.5-6.7-26.6c-3.7-14.6-6.9-27.5-7.2-28.6-.2-1.1-3.1-12.7-6.4-25.8-3.3-13.1-6-24-6-24.3 0-.3 3.3-.3 7.3 0 3.9.3 10.6.8 14.7 1.1zm-23 80l9.4 37.3-22.8 45.4c-15.1 30.1-22.5 44-22.1 41.3.3-2.2.8-5.8 1.1-8 .3-2.2 1.2-8.1 2-13 1.9-11.5 2.2-13 2.9-18.5.3-2.5.8-5.2 1-6 .2-.8.6-3.8 1-6.5.3-2.8.8-6.4 1.1-8 .7-3.8 3.1-19.9 4.4-29 .6-3.9 1.3-8.1 1.5-9.5.6-3.5 2.3-14.7 3-19.5.4-2.2 1.2-7.8 2-12.5s1.7-10.3 2-12.5c.8-5.9 1.6-10.7 2-13 .2-1.1.4-3.4.4-5 .1-2 .4-2.6 1-1.7.4.7 5 18.1 10.1 38.7z"/></svg>