<svg version="1" xmlns="http://www.w3.org/2000/svg" width="866.667" height="866.667" viewBox="0 0 650.000000 650.000000"><path d="M397.5 107.9c-85.8 21.3-157.2 39.1-158.7 39.4l-2.8.7v149c0 82-.3 149-.6 149s-1.9-.9-3.5-2.1c-5.3-3.8-19.3-9.7-28.4-12-10.5-2.6-30-3.1-40-1-28.7 6-50.4 21.8-61.6 44.7-9.6 19.8-9.2 41.4 1.3 61.7 7.7 15 24.9 29.8 42.8 37 26 10.3 57.6 8.2 81.9-5.6 14-7.9 28.1-23.4 34-37.2 5.3-12.7 5.1-6.4 5.1-151.2V246.1l3.8-1c12.6-3.4 250.7-62.1 251.8-62.1 1.2 0 1.4 15.5 1.4 96 0 52.8-.2 96-.5 96-.2 0-2.9-1.5-5.8-3.4-21.8-13.9-52.8-17.3-79.2-8.5-12.6 4.2-22.5 10.1-32.1 19.2-17.1 16.1-24.2 32.9-23.1 55 .8 17.5 6.6 31.2 19 44.3 41.3 44.2 120.2 34.3 145.8-18.2 7.3-15.1 6.9-1.2 6.9-208.2 0-102.4-.3-186.1-.7-186.1-.5.1-71 17.5-156.8 38.8z"/></svg>