<?xml version="1.0" standalone="no"?>
<!DOCTYPE svg PUBLIC "-//W3C//DTD SVG 20010904//EN"
 "http://www.w3.org/TR/2001/REC-SVG-20010904/DTD/svg10.dtd">
<svg version="1.0" xmlns="http://www.w3.org/2000/svg"
 width="700.000000pt" height="700.000000pt" viewBox="0 0 700.000000 700.000000"
 preserveAspectRatio="xMidYMid meet">
<metadata>
Created by potrace 1.11, written by Peter Selinger 2001-2013
</metadata>
<g transform="translate(0.000000,700.000000) scale(0.100000,-0.100000)"
fill="#000000" stroke="none">
<path d="M6560 6979 c-41 -11 -82 -21 -90 -24 -8 -2 -46 -11 -85 -20 -38 -9
-178 -43 -310 -76 -132 -34 -251 -63 -265 -65 -14 -3 -32 -7 -40 -10 -8 -3
-24 -8 -35 -10 -11 -2 -211 -51 -445 -110 -234 -58 -432 -107 -440 -109 -8 -2
-109 -27 -225 -55 -115 -29 -217 -53 -225 -55 -8 -2 -87 -22 -175 -44 -149
-37 -762 -188 -795 -196 -8 -2 -152 -38 -320 -79 -168 -42 -316 -79 -330 -81
-14 -3 -50 -12 -80 -20 -30 -9 -65 -18 -78 -21 -24 -5 -242 -59 -302 -74 l-36
-10 1 -2032 c0 -1118 -1 -2036 -3 -2041 -2 -4 -22 6 -45 21 -122 84 -339 169
-470 186 -17 3 -54 8 -82 12 -119 16 -252 10 -425 -19 -200 -34 -444 -162
-601 -315 -198 -192 -302 -426 -302 -682 -1 -217 41 -358 158 -535 168 -253
444 -427 785 -496 87 -17 324 -20 420 -5 103 16 222 45 235 57 5 5 16 9 25 9
23 0 191 83 259 128 256 169 436 447 467 721 4 31 7 865 7 1853 0 1499 2 1798
13 1802 10 4 960 241 1044 261 8 2 91 22 183 45 93 23 176 43 185 45 10 2 163
40 342 85 179 45 332 83 340 85 8 1 173 42 365 90 193 47 357 88 365 90 8 2
154 38 323 80 169 42 317 78 327 80 20 4 20 -9 20 -1315 l0 -1320 -70 45
c-139 91 -295 148 -490 180 -63 11 -264 13 -347 4 -451 -47 -850 -349 -977
-738 -34 -105 -46 -178 -46 -291 0 -86 4 -122 24 -219 11 -48 39 -127 68 -186
116 -234 331 -429 583 -530 39 -15 79 -31 90 -36 39 -16 181 -48 250 -55 126
-13 302 -8 405 12 155 30 347 108 477 194 185 123 347 331 412 530 54 165 50
-6 51 2738 0 1398 -3 2542 -7 2541 -5 0 -42 -9 -83 -20z"/>
</g>
</svg>
